<svg width="16" height="16" viewBox="0 0 16 16" fill="none" xmlns="http://www.w3.org/2000/svg">
<g clip-path="url(#clip0_33_4805)">
<path d="M4.33398 8.66732L4.85696 9.71326C5.03395 10.0672 5.12245 10.2442 5.24067 10.3976C5.34558 10.5337 5.46759 10.6557 5.60369 10.7606C5.75706 10.8789 5.93405 10.9674 6.28804 11.1443L7.33398 11.6673L6.28804 12.1903C5.93405 12.3673 5.75706 12.4558 5.60369 12.574C5.46759 12.6789 5.34558 12.8009 5.24067 12.937C5.12245 13.0904 5.03395 13.2674 4.85696 13.6214L4.33398 14.6673L3.81101 13.6214C3.63402 13.2674 3.54552 13.0904 3.4273 12.937C3.32239 12.8009 3.20038 12.6789 3.06428 12.574C2.91091 12.4558 2.73391 12.3673 2.37993 12.1903L1.33398 11.6673L2.37993 11.1443C2.73391 10.9674 2.91091 10.8789 3.06428 10.7606C3.20038 10.6557 3.32239 10.5337 3.4273 10.3976C3.54552 10.2442 3.63402 10.0672 3.81101 9.71326L4.33398 8.66732Z" stroke="#364153" stroke-width="1.3" stroke-linecap="round" stroke-linejoin="round"/>
<path d="M10.0006 1.33398L10.7864 3.37693C10.9744 3.86575 11.0684 4.11016 11.2146 4.31575C11.3442 4.49795 11.5033 4.65715 11.6856 4.78671C11.8911 4.93289 12.1356 5.0269 12.6244 5.2149L14.6673 6.00065L12.6244 6.7864C12.1356 6.97441 11.8911 7.06841 11.6856 7.21459C11.5033 7.34415 11.3442 7.50335 11.2146 7.68556C11.0684 7.89114 10.9744 8.13555 10.7864 8.62437L10.0007 10.6673L9.2149 8.62437C9.02689 8.13555 8.93289 7.89114 8.78671 7.68556C8.65715 7.50335 8.49795 7.34415 8.31575 7.21459C8.11016 7.06841 7.86575 6.97441 7.37693 6.7864L5.33398 6.00065L7.37693 5.2149C7.86575 5.02689 8.11016 4.93289 8.31574 4.78671C8.49795 4.65715 8.65715 4.49795 8.78671 4.31575C8.93289 4.11016 9.02689 3.86575 9.2149 3.37693L10.0006 1.33398Z" stroke="#364153" stroke-width="1.3" stroke-linecap="round" stroke-linejoin="round"/>
</g>
<defs>
<clipPath id="clip0_33_4805">
<rect width="16" height="16" fill="white"/>
</clipPath>
</defs>
</svg>
