<svg width="16" height="16" viewBox="0 0 16 16" fill="none" xmlns="http://www.w3.org/2000/svg">
<path d="M1.66732 7.99935H3.92196C4.37876 7.99935 4.79636 8.25744 5.00065 8.66602C5.20494 9.07459 5.62254 9.33268 6.07934 9.33268H9.92196C10.3788 9.33268 10.7964 9.07459 11.0007 8.66602C11.2049 8.25744 11.6225 7.99935 12.0793 7.99935H14.334M5.97836 2.66602H10.0229C10.7409 2.66602 11.0998 2.66602 11.4167 2.77533C11.697 2.87199 11.9522 3.02975 12.164 3.23718C12.4035 3.47175 12.564 3.79282 12.8851 4.43493L14.3295 7.32368C14.4555 7.57567 14.5185 7.70167 14.5629 7.83371C14.6024 7.95098 14.6308 8.07166 14.648 8.19419C14.6673 8.33217 14.6673 8.47303 14.6673 8.75477V10.1327C14.6673 11.2528 14.6673 11.8128 14.4493 12.2407C14.2576 12.617 13.9516 12.9229 13.5753 13.1147C13.1475 13.3327 12.5874 13.3327 11.4673 13.3327H4.53398C3.41388 13.3327 2.85383 13.3327 2.426 13.1147C2.04968 12.9229 1.74372 12.617 1.55197 12.2407C1.33398 11.8128 1.33398 11.2528 1.33398 10.1327V8.75477C1.33398 8.47303 1.33398 8.33217 1.3533 8.19419C1.37045 8.07166 1.39894 7.95098 1.4384 7.83371C1.48282 7.70167 1.54582 7.57567 1.67182 7.32368L3.11619 4.43493C3.43725 3.79281 3.59779 3.47175 3.83728 3.23718C4.04907 3.02975 4.30433 2.87199 4.58458 2.77533C4.90149 2.66602 5.26044 2.66602 5.97836 2.66602Z" stroke="#364153" stroke-width="1.33" stroke-linecap="round" stroke-linejoin="round"/>
</svg>
