<svg width="16" height="16" viewBox="0 0 16 16" fill="none" xmlns="http://www.w3.org/2000/svg">
<path fill-rule="evenodd" clip-rule="evenodd" d="M2.66602 8H13.3327V11.3333C13.3327 12.8061 12.1388 14 10.666 14H5.33268C3.85992 14 2.66602 12.8061 2.66602 11.3333V8ZM3.99935 9.33333V11.3333C3.99935 12.0697 4.5963 12.6667 5.33268 12.6667H10.666C11.4024 12.6667 11.9993 12.0697 11.9993 11.3333V9.33333H3.99935Z" fill="#364153"/>
<path fill-rule="evenodd" clip-rule="evenodd" d="M2 6.66602C2 5.56145 2.89543 4.66602 4 4.66602H12C13.1046 4.66602 14 5.56145 14 6.66602V7.33268C14 8.43725 13.1046 9.33268 12 9.33268H4C2.89543 9.33268 2 8.43725 2 7.33268V6.66602ZM4 5.99935C3.63181 5.99935 3.33333 6.29783 3.33333 6.66602V7.33268C3.33333 7.70087 3.63181 7.99935 4 7.99935H12C12.3682 7.99935 12.6667 7.70087 12.6667 7.33268V6.66602C12.6667 6.29783 12.3682 5.99935 12 5.99935H4Z" fill="#364153"/>
<path fill-rule="evenodd" clip-rule="evenodd" d="M4.66602 4C4.66602 2.89543 5.56145 2 6.66602 2C7.17825 2 7.64551 2.19257 7.99935 2.50926C8.35319 2.19257 8.82045 2 9.33268 2C10.4373 2 11.3327 2.89543 11.3327 4C11.3327 5.10457 10.4373 6 9.33268 6H8.66602V14H7.33268V6H6.66602C5.56145 6 4.66602 5.10457 4.66602 4ZM7.33268 4.66667V4C7.33268 3.63181 7.03421 3.33333 6.66602 3.33333C6.29783 3.33333 5.99935 3.63181 5.99935 4C5.99935 4.36819 6.29783 4.66667 6.66602 4.66667H7.33268ZM8.66602 4V4.66667H9.33268C9.70087 4.66667 9.99935 4.36819 9.99935 4C9.99935 3.63181 9.70087 3.33333 9.33268 3.33333C8.96449 3.33333 8.66602 3.63181 8.66602 4Z" fill="#364153"/>
</svg>
